<?xml version="1.0" encoding="UTF-8" standalone="no"?>
<svg
   width="15.172"
   height="15.169"
   viewBox="0 0 15.172 15.169"
   version="1.1"
   id="svg3"
   sodipodi:docname="instagram_icon.svg"
   inkscape:version="1.1.2 (b8e25be833, 2022-02-05)"
   xmlns:inkscape="http://www.inkscape.org/namespaces/inkscape"
   xmlns:sodipodi="http://sodipodi.sourceforge.net/DTD/sodipodi-0.dtd"
   xmlns="http://www.w3.org/2000/svg"
   xmlns:svg="http://www.w3.org/2000/svg">
  <defs
     id="defs7" />
  <sodipodi:namedview
     id="namedview5"
     pagecolor="#505050"
     bordercolor="#eeeeee"
     borderopacity="1"
     inkscape:pageshadow="0"
     inkscape:pageopacity="0"
     inkscape:pagecheckerboard="0"
     showgrid="false"
     inkscape:zoom="54.782782"
     inkscape:cx="7.5936268"
     inkscape:cy="7.5936268"
     inkscape:window-width="1920"
     inkscape:window-height="1017"
     inkscape:window-x="-8"
     inkscape:window-y="-8"
     inkscape:window-maximized="1"
     inkscape:current-layer="svg3" />
  <path
     id="Icon_awesome-instagram"
     data-name="Icon awesome-instagram"
     d="M7.582,5.933a3.889,3.889,0,1,0,3.889,3.889A3.883,3.883,0,0,0,7.582,5.933Zm0,6.418a2.528,2.528,0,1,1,2.528-2.528,2.533,2.533,0,0,1-2.528,2.528Zm4.955-6.577a.907.907,0,1,1-.907-.907A.905.905,0,0,1,12.538,5.774Zm2.576.921a4.489,4.489,0,0,0-1.225-3.178A4.518,4.518,0,0,0,10.71,2.291c-1.252-.071-5.006-.071-6.258,0A4.512,4.512,0,0,0,1.273,3.513,4.5,4.5,0,0,0,.048,6.691c-.071,1.252-.071,5.006,0,6.258a4.489,4.489,0,0,0,1.225,3.178,4.524,4.524,0,0,0,3.178,1.225c1.252.071,5.006.071,6.258,0a4.489,4.489,0,0,0,3.178-1.225,4.519,4.519,0,0,0,1.225-3.178c.071-1.252.071-5,0-6.255Zm-1.618,7.6a2.56,2.56,0,0,1-1.442,1.442,16.717,16.717,0,0,1-4.471.3,16.847,16.847,0,0,1-4.471-.3,2.56,2.56,0,0,1-1.442-1.442,16.718,16.718,0,0,1-.3-4.471,16.848,16.848,0,0,1,.3-4.471A2.56,2.56,0,0,1,3.111,3.909a16.716,16.716,0,0,1,4.471-.3,16.847,16.847,0,0,1,4.471.3A2.56,2.56,0,0,1,13.5,5.351a16.718,16.718,0,0,1,.3,4.471A16.708,16.708,0,0,1,13.5,14.293Z"
     transform="translate(0.005 -2.238)"
     fill="#fff"
     opacity="0.4" />
</svg>
